<?xml version="1.0" encoding="utf-8"?>
<!-- Generator: Adobe Illustrator 21.0.2, SVG Export Plug-In . SVG Version: 6.00 Build 0)  -->
<svg version="1.1" id="Calque_1" xmlns="http://www.w3.org/2000/svg" xmlns:xlink="http://www.w3.org/1999/xlink" x="0px" y="0px"
	 viewBox="0 0 254.8 249.1" style="enable-background:new 0 0 254.8 249.1;" xml:space="preserve">
<style type="text/css">
	.st0{fill:#CCCCCC;stroke:#FFFFFF;stroke-width:14.6005;stroke-miterlimit:10;}
	.st1{fill:#FFFFFF;}
</style>
<g>
	<g>
		<path d="M248.8,59.2l-2.7-2.7c-7.9-7.9-20.8-7.9-28.7,0l-2.7,2.7l-5.2,5.2l-13.5,13.5v-28c12.7-1.1,22.7-11.8,22.7-24.8
			c0-13.8-11.2-25-25-25H25C11.2,0,0,11.2,0,25v198.7h21.3v25.4h174.9V140.5L241,95.7l3.9-3.9l1.3-1.3l2.7-2.7
			c3.8-3.8,5.9-8.9,5.9-14.3C254.8,68.1,252.7,63,248.8,59.2z M42.6,7.4h151.3c9.7,0,17.6,7.9,17.6,17.6s-7.9,17.6-17.6,17.6H42.6
			c4.5-4.5,7.3-10.7,7.3-17.6C49.9,18.1,47.1,11.9,42.6,7.4z M21.3,42.6L21.3,42.6v173.7H7.4V25c0-9.7,7.9-17.6,17.6-17.6
			S42.6,15.2,42.6,25c0,9.7-7.9,17.6-17.6,17.6H21.3z M188.8,241.7L188.8,241.7H28.6V49.9h160.2v35.2l-15.9,15.9H45.6v7.4h119.9
			l-15.4,15.4H45.6v7.4h97.2l-15.4,15.4H45.6v7.4H120l-1.3,1.3l-4.2,14.1h-69v7.4h66.8l-4.6,15.4H45.6v7.4h129.9V192h-43.8l18.4-5.5
			l9.9-9.9h15.4v-7.4h-8.1l21.4-21.4L188.8,241.7L188.8,241.7z M123.8,164.1l17.4,17.4l-24.8,7.3L123.8,164.1z M148.2,178.1l-21-21
			l87.6-87.6l21,21L148.2,178.1z M243.6,82.6l-2.7,2.7l-21-21l2.7-2.7c5-5,13.2-5,18.3,0l2.7,2.7c2.4,2.4,3.8,5.7,3.8,9.1
			C247.4,76.9,246.1,80.2,243.6,82.6z"/>
	</g>
</g>
</svg>
