<svg width="512.001" height="512.001" xmlns="http://www.w3.org/2000/svg">

 <g>
  <title>background</title>
  <rect fill="none" id="canvas_background" height="402" width="582" y="-1" x="-1"/>
 </g>
 <g>
  <title>Layer 1</title>
  <g id="svg_1">
   <g id="svg_2">
    <path id="svg_3" d="m76.8,256.001l-34.133,0c-4.713,0 -8.533,3.82 -8.533,8.533l0,221.866c0,14.138 11.461,25.6 25.6,25.6s25.6,-11.461 25.6,-25.6l0,-221.867c-0.001,-4.712 -3.821,-8.532 -8.534,-8.532zm-8.532,230.399l0,0c-0.001,4.713 -3.821,8.533 -8.534,8.533s-8.533,-3.82 -8.533,-8.533l0,-213.333l17.067,0l0,213.333z"/>
   </g>
  </g>
  <g id="svg_4">
   <g id="svg_5">
    <path id="svg_6" d="m76.8,136.534l-34.133,0c-4.713,0 -8.533,3.82 -8.533,8.533l0,119.467c0,4.713 3.82,8.533 8.533,8.533l34.133,0c4.713,0 8.533,-3.82 8.533,-8.533l0,-119.466c0,-4.713 -3.82,-8.534 -8.533,-8.534zm-8.533,119.467l-17.067,0l0,-102.401l17.067,0l0,102.401z"/>
   </g>
  </g>
  <g id="svg_7">
   <g id="svg_8">
    <path id="svg_9" d="m494.933,0.001l-17.067,0c-18.851,0 -34.133,15.282 -34.133,34.133l0,204.8c-0.186,17.048 12.236,31.62 29.099,34.133l1.536,0l3.499,0l25.6,0c4.713,0 8.533,-3.82 8.533,-8.533l0,-247.466c0,-9.426 -7.641,-17.067 -17.067,-17.067zm-18.091,256l-1.024,0c-8.618,-1.041 -15.081,-8.386 -15.019,-17.067l0,-204.8c0,-9.426 7.641,-17.067 17.067,-17.067l17.067,0l0,238.934l-18.091,0z"/>
   </g>
  </g>
  <g id="svg_10">
   <g id="svg_11">
    <path id="svg_12" d="m42.667,136.534c-14.138,0 -25.6,-11.461 -25.6,-25.6l0,-102.4c0,-4.713 -3.821,-8.533 -8.534,-8.533c-4.713,0 -8.533,3.82 -8.533,8.533l0,102.4c0,23.564 19.103,42.666 42.667,42.666c4.713,0 8.533,-3.821 8.533,-8.533c0,-4.712 -3.82,-8.533 -8.533,-8.533z"/>
   </g>
  </g>
  <g id="svg_13">
   <g id="svg_14">
    <path id="svg_15" d="m110.933,0.001c-4.713,0 -8.533,3.82 -8.533,8.533l0,102.4c0,14.138 -11.462,25.6 -25.6,25.6c-4.713,0 -8.533,3.82 -8.533,8.533c0,4.713 3.82,8.533 8.533,8.533c23.564,0 42.667,-19.103 42.667,-42.667l0,-102.399c0,-4.713 -3.821,-8.533 -8.534,-8.533z"/>
   </g>
  </g>
  <g id="svg_16">
   <g id="svg_17">
    <path id="svg_18" d="m110.933,93.868l-102.4,0c-4.713,0 -8.533,3.82 -8.533,8.533c0,4.713 3.82,8.533 8.533,8.533l102.4,0c4.713,0 8.533,-3.82 8.533,-8.533c0,-4.713 -3.82,-8.533 -8.533,-8.533z"/>
   </g>
  </g>
  <g id="svg_19">
   <g id="svg_20">
    <path id="svg_21" d="m42.667,0.001c-4.713,0 -8.533,3.82 -8.533,8.533l0,93.867c0,4.713 3.82,8.533 8.533,8.533s8.533,-3.82 8.533,-8.533l0,-93.867c0,-4.713 -3.82,-8.533 -8.533,-8.533z"/>
   </g>
  </g>
  <g id="svg_22">
   <g id="svg_23">
    <path id="svg_24" d="m76.8,0.001c-4.713,0 -8.533,3.82 -8.533,8.533l0,93.867c0,4.713 3.82,8.533 8.533,8.533c4.713,0 8.533,-3.82 8.533,-8.533l0,-93.867c0,-4.713 -3.82,-8.533 -8.533,-8.533z"/>
   </g>
  </g>
  <g id="svg_25">
   <g id="svg_26">
    <path id="svg_27" d="m503.467,256.001l-34.133,0c-4.713,0 -8.533,3.82 -8.533,8.533l0,221.866c0,14.138 11.461,25.6 25.6,25.6c14.139,0 25.6,-11.461 25.6,-25.6l0,-221.867c-0.001,-4.712 -3.821,-8.532 -8.534,-8.532zm-8.533,230.399l0,0c-0.001,4.713 -3.821,8.533 -8.534,8.533c-4.713,0 -8.533,-3.82 -8.533,-8.533l0,-213.333l17.067,0l0,213.333z"/>
   </g>
  </g>
  <g id="svg_40"/>
  <g id="svg_41"/>
  <g id="svg_42"/>
  <g id="svg_43"/>
  <g id="svg_44"/>
  <g id="svg_45"/>
  <g id="svg_46"/>
  <g id="svg_47"/>
  <g id="svg_48"/>
  <g id="svg_49"/>
  <g id="svg_50"/>
  <g id="svg_51"/>
  <g id="svg_52"/>
  <g id="svg_53"/>
  <g id="svg_54"/>
  <g stroke="null" id="svg_76">
   <g stroke="null" transform="matrix(0.779623813557708,0,0,0.7964491882194117,-1069.82877419782,-1388.230028370788) " id="svg_59">
    <path stroke="null" id="svg_60" d="m1911.177993,1952.101996c-24.7,-24.7 -57.4,-38.2 -92.3,-38.2s-67.7,13.6 -92.4,38.3l-12.9,12.9l-13.1,-13.1c-24.7,-24.7 -57.6,-38.4 -92.5,-38.4c-34.8,0 -67.6,13.6 -92.2,38.2c-24.7,24.7 -38.3,57.5 -38.2,92.4c0,34.9 13.7,67.6 38.4,92.3l187.8,187.8c2.6,2.6 6.1,4 9.5,4c3.4,0 6.9,-1.3 9.5,-3.9l188.2,-187.5c24.7,-24.7 38.3,-57.5 38.3,-92.4c0.1,-34.9 -13.4,-67.7 -38.1,-92.4zm-19.2,165.7l-178.7,178l-178.3,-178.3c-19.6,-19.6 -30.4,-45.6 -30.4,-73.3s10.7,-53.7 30.3,-73.2c19.5,-19.5 45.5,-30.3 73.1,-30.3c27.7,0 53.8,10.8 73.4,30.4l22.6,22.6c5.3,5.3 13.8,5.3 19.1,0l22.4,-22.4c19.6,-19.6 45.7,-30.4 73.3,-30.4c27.6,0 53.6,10.8 73.2,30.3c19.6,19.6 30.3,45.6 30.3,73.3c0.1,27.7 -10.7,53.7 -30.3,73.3z"/>
   </g>
   <g stroke="null" transform="matrix(0.779623813557708,0,0,0.7964491882194117,-1069.82877419782,-1388.230028370788) " id="svg_61"/>
   <g stroke="null" transform="matrix(0.779623813557708,0,0,0.7964491882194117,-1069.82877419782,-1388.230028370788) " id="svg_62"/>
   <g stroke="null" transform="matrix(0.779623813557708,0,0,0.7964491882194117,-1069.82877419782,-1388.230028370788) " id="svg_63"/>
   <g stroke="null" transform="matrix(0.779623813557708,0,0,0.7964491882194117,-1069.82877419782,-1388.230028370788) " id="svg_64"/>
   <g stroke="null" transform="matrix(0.779623813557708,0,0,0.7964491882194117,-1069.82877419782,-1388.230028370788) " id="svg_65"/>
   <g stroke="null" transform="matrix(0.779623813557708,0,0,0.7964491882194117,-1069.82877419782,-1388.230028370788) " id="svg_66"/>
   <g stroke="null" transform="matrix(0.779623813557708,0,0,0.7964491882194117,-1069.82877419782,-1388.230028370788) " id="svg_67"/>
   <g stroke="null" transform="matrix(0.779623813557708,0,0,0.7964491882194117,-1069.82877419782,-1388.230028370788) " id="svg_68"/>
   <g stroke="null" transform="matrix(0.779623813557708,0,0,0.7964491882194117,-1069.82877419782,-1388.230028370788) " id="svg_69"/>
   <g stroke="null" transform="matrix(0.779623813557708,0,0,0.7964491882194117,-1069.82877419782,-1388.230028370788) " id="svg_70"/>
   <g stroke="null" transform="matrix(0.779623813557708,0,0,0.7964491882194117,-1069.82877419782,-1388.230028370788) " id="svg_71"/>
   <g stroke="null" transform="matrix(0.779623813557708,0,0,0.7964491882194117,-1069.82877419782,-1388.230028370788) " id="svg_72"/>
   <g stroke="null" transform="matrix(0.779623813557708,0,0,0.7964491882194117,-1069.82877419782,-1388.230028370788) " id="svg_73"/>
   <g stroke="null" transform="matrix(0.779623813557708,0,0,0.7964491882194117,-1069.82877419782,-1388.230028370788) " id="svg_74"/>
   <g stroke="null" transform="matrix(0.779623813557708,0,0,0.7964491882194117,-1069.82877419782,-1388.230028370788) " id="svg_75"/>
  </g>
 </g>
</svg>