<?xml version="1.0" encoding="utf-8"?>
<!-- Generator: Adobe Illustrator 21.0.2, SVG Export Plug-In . SVG Version: 6.00 Build 0)  -->
<svg version="1.1" id="Calque_1" xmlns="http://www.w3.org/2000/svg" xmlns:xlink="http://www.w3.org/1999/xlink" x="0px" y="0px"
	 viewBox="0 0 226.6 142" style="enable-background:new 0 0 226.6 142;" xml:space="preserve">
<style type="text/css">
	.st0{fill:#CCCCCC;stroke:#FFFFFF;stroke-width:14.6005;stroke-miterlimit:10;}
	.st1{fill:#FFFFFF;}
</style>
<g>
	<g>
		<path d="M117.8,33.5c-1.8-1.8-4-2.8-6.5-2.8H102v-7c0-3.2-1.1-5.9-3.4-8.2c-2.3-2.3-5-3.4-8.2-3.4h-4.6c-3.2,0-5.9,1.1-8.2,3.4
			c-2.3,2.3-3.4,5-3.4,8.2v7H46.4v-7c0-3.2-1.1-5.9-3.4-8.2c-2.3-2.3-5-3.4-8.2-3.4h-4.6c-3.2,0-5.9,1.1-8.2,3.4
			c-2.3,2.3-3.4,5-3.4,8.2v7H9.3c-2.5,0-4.7,0.9-6.5,2.8C0.9,35.3,0,37.5,0,40v92.7c0,2.5,0.9,4.7,2.8,6.5c1.8,1.8,4,2.8,6.5,2.8
			h102c2.5,0,4.7-0.9,6.5-2.8c1.8-1.8,2.8-4,2.8-6.5V40C120.5,37.5,119.6,35.3,117.8,33.5z M30.1,132.7H9.3v-20.9h20.9V132.7z
			 M30.1,107.2H9.3V84h20.9V107.2z M30.1,79.4H9.3V58.5h20.9V79.4z M28.5,46.3c-0.5-0.5-0.7-1-0.7-1.6V23.8c0-0.6,0.2-1.2,0.7-1.6
			c0.5-0.5,1-0.7,1.6-0.7h4.6c0.6,0,1.2,0.2,1.6,0.7c0.5,0.5,0.7,1,0.7,1.6v20.9c0,0.6-0.2,1.2-0.7,1.6c-0.5,0.5-1,0.7-1.6,0.7h-4.6
			C29.5,46.9,29,46.7,28.5,46.3z M57.9,132.7H34.8v-20.9h23.2L57.9,132.7L57.9,132.7z M57.9,107.2H34.8V84h23.2L57.9,107.2
			L57.9,107.2z M57.9,79.4H34.8V58.5h23.2L57.9,79.4L57.9,79.4z M85.8,132.7H62.6v-20.9h23.2V132.7z M85.8,107.2H62.6V84h23.2V107.2
			z M85.8,79.4H62.6V58.5h23.2V79.4z M84.1,46.3c-0.5-0.5-0.7-1-0.7-1.6V23.8c0-0.6,0.2-1.2,0.7-1.6c0.5-0.5,1-0.7,1.6-0.7h4.6
			c0.6,0,1.2,0.2,1.6,0.7c0.5,0.5,0.7,1,0.7,1.6v20.9c0,0.6-0.2,1.2-0.7,1.6c-0.5,0.5-1,0.7-1.6,0.7h-4.6
			C85.1,46.9,84.6,46.7,84.1,46.3z M111.2,132.7H90.4v-20.9h20.9V132.7z M111.2,107.2H90.4V84h20.9V107.2z M111.2,79.4H90.4V58.5
			h20.9V79.4z"/>
	</g>
	<g>
		<g id="reply_1_">
			<path d="M138.8,73.2c12.2-17.1,29.3-24.9,53.7-24.9v20l34.2-34.2L192.5,0v19.5C158.3,24.4,143.7,48.8,138.8,73.2z"/>
		</g>
	</g>
</g>
</svg>
