<?xml version="1.0" encoding="utf-8"?>
<!-- Generator: Adobe Illustrator 21.0.2, SVG Export Plug-In . SVG Version: 6.00 Build 0)  -->
<svg version="1.1" id="Calque_1" xmlns="http://www.w3.org/2000/svg" xmlns:xlink="http://www.w3.org/1999/xlink" x="0px" y="0px"
	 viewBox="0 0 330.2 337.7" style="enable-background:new 0 0 330.2 337.7;" xml:space="preserve">
<style type="text/css">
	.st0{fill:#CCCCCC;stroke:#FFFFFF;stroke-width:14.6005;stroke-miterlimit:10;}
	.st1{fill:#FFFFFF;}
</style>
<g>
	<path d="M325.1,204.8L308.3,188c-6.9-6.9-18-6.9-24.9,0l-90.8,90.8l-12.5,45.9l-3.1,3.1c-2.3,2.3-2.3,6,0,8.3l0,0.1l0.1,0
		c1.1,1.1,2.6,1.7,4.1,1.7c1.5,0,3-0.6,4.2-1.7l3.1-3.1l45.9-12.5l90.8-90.8C332,222.8,332,211.6,325.1,204.8z M206.2,281.8
		l60.4-60.4l25,25l-60.4,60.4L206.2,281.8z M200.9,293.2l19,19l-26.1,7.1L200.9,293.2z M316.8,221.3L300,238.1l-25-25l16.7-16.7
		c2.3-2.3,6-2.3,8.2,0l16.8,16.8C319,215.4,319,219.1,316.8,221.3z"/>
	<path d="M162.2,59c20.2,0,34.8,4.9,43.3,14.5c10,11.3,8.3,25.7,8.3,25.8l-0.1,33.6l1.9,1.8c2.1,1.9,3.3,4.5,3.3,7.2v20.9
		c0,4.3-2.8,8-7,9.3c-3.1,1-4.9,4.3-3.9,7.4c1,3.1,4.3,4.9,7.4,3.9c9.1-2.8,15.3-11.1,15.3-20.6v-20.9c0-5.1-1.9-10.1-5.2-14v-27.5
		c0.3-3.1,1.4-20.3-11.1-34.6c-10.9-12.4-28.5-18.7-52.3-18.7s-41.4,6.3-52.3,18.7c-12.5,14.2-11.4,31.5-11.1,34.6V128
		c-3.3,3.9-5.2,8.9-5.2,14v20.9c0,6.5,2.9,12.5,7.9,16.6c4.8,18.7,14.6,32.9,18.2,37.7v17.1c0,4.8-2.6,9.2-6.9,11.5l-46.6,25.4
		c-1.5,0.8-3,1.8-4.5,2.9c-30.8-27.7-49.9-67.7-49.9-111.9c0-82.9,67.5-150.4,150.4-150.4s150.4,67.5,150.4,150.4
		c0,3.3,2.6,5.9,5.9,5.9s5.9-2.6,5.9-5.9C324.3,72.8,251.6,0,162.2,0S0,72.8,0,162.2c0,47,20,89.7,52.6,119.5l-0.1,0.1l1.8,1.5
		c13.7,12.2,29.5,22.1,47,29.2c1,0.4,1.9,0.8,2.9,1.2c2.1,0.8,4.1,1.5,6.2,2.2c2.3,0.8,4.5,1.5,6.8,2.1c1.6,0.5,3.2,0.9,4.9,1.4
		c4.1,1.1,8.3,2,12.5,2.7c0.3,0.1,0.7,0.1,1,0.1c2.8,0,5.3-2,5.8-4.9c0.5-3.2-1.6-6.3-4.8-6.8c0,0,0,0,0,0
		c-3.9-0.7-7.6-1.5-11.4-2.5c-1.3-0.3-2.6-0.7-3.9-1c-2.5-0.7-5-1.5-7.4-2.3c-2.9-1-5.8-2.1-8.7-3.3c-1.2-0.5-2.4-1-3.6-1.5
		c-2.4-1.1-4.9-2.2-7.2-3.4c-0.2-0.1-0.4-0.2-0.6-0.3c-7.9-4-15.4-8.8-22.5-14.1c0.2-0.1,0.4-0.2,0.6-0.4l46.6-25.4
		c8-4.4,13-12.8,13-21.9V213l-1.4-1.6c-0.1-0.1-12.8-15.5-17.7-36.7l-0.5-2.3l-2-1.3c-2.8-1.8-4.5-4.9-4.5-8.2v-20.9
		c0-2.7,1.2-5.3,3.3-7.2l1.9-1.8v-32.8l-0.1-0.8c0-0.1-1.8-14.3,8.2-25.7C127.3,63.9,141.9,59,162.2,59z"/>
</g>
</svg>
